<mxfile host="app.diagrams.net" modified="2023-10-30T14:56:05.370Z" agent="Mozilla/5.0 (Windows NT 10.0; Win64; x64) AppleWebKit/537.36 (KHTML, like Gecko) Chrome/118.0.0.0 Safari/537.36" etag="1ruOfeMg-PElzQuq13fE" version="22.0.8" type="device" pages="4">
  <diagram name="Page-1" id="bNm6fPgku-ol44JnQ1Xc">
    <mxGraphModel dx="1846" dy="1590" grid="0" gridSize="10" guides="1" tooltips="1" connect="1" arrows="1" fold="1" page="0" pageScale="1" pageWidth="850" pageHeight="1100" math="0" shadow="0">
      <root>
        <mxCell id="0" />
        <mxCell id="1" parent="0" />
        <mxCell id="-78ikd0wvrxrNOZtSnrt-1" value="&lt;u&gt;&lt;b&gt;musID&lt;/b&gt;&lt;/u&gt;" style="rounded=0;whiteSpace=wrap;html=1;align=center;" vertex="1" parent="1">
          <mxGeometry x="-226" y="-680" width="62" height="45" as="geometry" />
        </mxCell>
        <mxCell id="-78ikd0wvrxrNOZtSnrt-2" value="musName" style="rounded=0;whiteSpace=wrap;html=1;align=center;" vertex="1" parent="1">
          <mxGeometry x="-164" y="-680" width="61" height="45" as="geometry" />
        </mxCell>
        <mxCell id="-78ikd0wvrxrNOZtSnrt-3" value="musname" style="rounded=0;whiteSpace=wrap;html=1;align=center;" vertex="1" parent="1">
          <mxGeometry x="-105" y="-680" width="61" height="45" as="geometry" />
        </mxCell>
        <mxCell id="-78ikd0wvrxrNOZtSnrt-4" value="street" style="rounded=0;whiteSpace=wrap;html=1;align=center;" vertex="1" parent="1">
          <mxGeometry x="-44" y="-680" width="61" height="45" as="geometry" />
        </mxCell>
        <mxCell id="-78ikd0wvrxrNOZtSnrt-5" value="city" style="rounded=0;whiteSpace=wrap;html=1;align=center;" vertex="1" parent="1">
          <mxGeometry x="17" y="-680" width="61" height="45" as="geometry" />
        </mxCell>
        <mxCell id="-78ikd0wvrxrNOZtSnrt-6" value="phone" style="rounded=0;whiteSpace=wrap;html=1;align=center;" vertex="1" parent="1">
          <mxGeometry x="78" y="-680" width="61" height="45" as="geometry" />
        </mxCell>
        <mxCell id="-78ikd0wvrxrNOZtSnrt-7" value="&lt;u&gt;&lt;b&gt;albumID&lt;/b&gt;&lt;/u&gt;" style="rounded=0;whiteSpace=wrap;html=1;align=center;" vertex="1" parent="1">
          <mxGeometry x="-230" y="-567" width="62" height="45" as="geometry" />
        </mxCell>
        <mxCell id="-78ikd0wvrxrNOZtSnrt-8" value="cr-date" style="rounded=0;whiteSpace=wrap;html=1;align=center;" vertex="1" parent="1">
          <mxGeometry x="-168" y="-567" width="61" height="45" as="geometry" />
        </mxCell>
        <mxCell id="-78ikd0wvrxrNOZtSnrt-9" value="tittle" style="rounded=0;whiteSpace=wrap;html=1;align=center;" vertex="1" parent="1">
          <mxGeometry x="-109" y="-567" width="61" height="45" as="geometry" />
        </mxCell>
        <mxCell id="-78ikd0wvrxrNOZtSnrt-10" value="&lt;font style=&quot;font-size: 14px;&quot;&gt;&lt;b&gt;Musicion&lt;/b&gt;&lt;/font&gt;" style="text;html=1;align=center;verticalAlign=middle;resizable=0;points=[];autosize=1;strokeColor=none;fillColor=none;" vertex="1" parent="1">
          <mxGeometry x="-234.5" y="-718" width="79" height="29" as="geometry" />
        </mxCell>
        <mxCell id="-78ikd0wvrxrNOZtSnrt-12" value="&lt;u&gt;&lt;b&gt;instName&lt;/b&gt;&lt;/u&gt;" style="rounded=0;whiteSpace=wrap;html=1;align=center;" vertex="1" parent="1">
          <mxGeometry x="-230" y="-353" width="62" height="45" as="geometry" />
        </mxCell>
        <mxCell id="-78ikd0wvrxrNOZtSnrt-13" value="key" style="rounded=0;whiteSpace=wrap;html=1;align=center;" vertex="1" parent="1">
          <mxGeometry x="-168" y="-353" width="61" height="45" as="geometry" />
        </mxCell>
        <mxCell id="-78ikd0wvrxrNOZtSnrt-14" value="&lt;u&gt;&lt;b&gt;songTitle&lt;/b&gt;&lt;/u&gt;" style="rounded=0;whiteSpace=wrap;html=1;align=center;" vertex="1" parent="1">
          <mxGeometry x="-228" y="-469" width="62" height="45" as="geometry" />
        </mxCell>
        <mxCell id="-78ikd0wvrxrNOZtSnrt-15" value="author" style="rounded=0;whiteSpace=wrap;html=1;align=center;" vertex="1" parent="1">
          <mxGeometry x="-166" y="-469" width="61" height="45" as="geometry" />
        </mxCell>
        <mxCell id="-78ikd0wvrxrNOZtSnrt-16" value="musID" style="rounded=0;whiteSpace=wrap;html=1;align=center;" vertex="1" parent="1">
          <mxGeometry x="-48" y="-567" width="62" height="45" as="geometry" />
        </mxCell>
        <mxCell id="-78ikd0wvrxrNOZtSnrt-17" value="- - - - -" style="text;html=1;align=center;verticalAlign=middle;resizable=0;points=[];autosize=1;strokeColor=none;fillColor=none;" vertex="1" parent="1">
          <mxGeometry x="-44" y="-548" width="51" height="26" as="geometry" />
        </mxCell>
        <mxCell id="-78ikd0wvrxrNOZtSnrt-19" value="" style="curved=1;endArrow=classic;html=1;rounded=0;exitX=0.5;exitY=0;exitDx=0;exitDy=0;entryX=0.5;entryY=1;entryDx=0;entryDy=0;" edge="1" parent="1" source="-78ikd0wvrxrNOZtSnrt-16" target="-78ikd0wvrxrNOZtSnrt-1">
          <mxGeometry width="50" height="50" relative="1" as="geometry">
            <mxPoint x="-118" y="-577" as="sourcePoint" />
            <mxPoint x="-68" y="-627" as="targetPoint" />
            <Array as="points">
              <mxPoint x="-68" y="-577" />
              <mxPoint x="-120" y="-613" />
            </Array>
          </mxGeometry>
        </mxCell>
        <mxCell id="-78ikd0wvrxrNOZtSnrt-20" value="albumID" style="rounded=0;whiteSpace=wrap;html=1;align=center;" vertex="1" parent="1">
          <mxGeometry x="-105" y="-469" width="62" height="45" as="geometry" />
        </mxCell>
        <mxCell id="-78ikd0wvrxrNOZtSnrt-21" value="- - - - -" style="text;html=1;align=center;verticalAlign=middle;resizable=0;points=[];autosize=1;strokeColor=none;fillColor=none;" vertex="1" parent="1">
          <mxGeometry x="-103" y="-450" width="51" height="26" as="geometry" />
        </mxCell>
        <mxCell id="-78ikd0wvrxrNOZtSnrt-22" value="" style="curved=1;endArrow=classic;html=1;rounded=0;exitX=0.5;exitY=0;exitDx=0;exitDy=0;entryX=0.5;entryY=1;entryDx=0;entryDy=0;" edge="1" parent="1" source="-78ikd0wvrxrNOZtSnrt-20" target="-78ikd0wvrxrNOZtSnrt-7">
          <mxGeometry width="50" height="50" relative="1" as="geometry">
            <mxPoint x="-158" y="-471" as="sourcePoint" />
            <mxPoint x="-108" y="-521" as="targetPoint" />
            <Array as="points">
              <mxPoint x="-108" y="-471" />
            </Array>
          </mxGeometry>
        </mxCell>
        <mxCell id="-78ikd0wvrxrNOZtSnrt-23" value="&lt;u&gt;&lt;b&gt;songTitle&lt;/b&gt;&lt;/u&gt;" style="rounded=0;whiteSpace=wrap;html=1;align=center;" vertex="1" parent="1">
          <mxGeometry x="-230" y="-268" width="62" height="45" as="geometry" />
        </mxCell>
        <mxCell id="-78ikd0wvrxrNOZtSnrt-24" value="&lt;u&gt;&lt;b&gt;musID&lt;/b&gt;&lt;/u&gt;" style="rounded=0;whiteSpace=wrap;html=1;align=center;" vertex="1" parent="1">
          <mxGeometry x="-167" y="-268" width="62" height="45" as="geometry" />
        </mxCell>
        <mxCell id="-78ikd0wvrxrNOZtSnrt-25" value="- - - - -" style="text;html=1;align=center;verticalAlign=middle;resizable=0;points=[];autosize=1;strokeColor=none;fillColor=none;" vertex="1" parent="1">
          <mxGeometry x="-222.5" y="-249" width="51" height="26" as="geometry" />
        </mxCell>
        <mxCell id="-78ikd0wvrxrNOZtSnrt-26" value="- - - - -" style="text;html=1;align=center;verticalAlign=middle;resizable=0;points=[];autosize=1;strokeColor=none;fillColor=none;" vertex="1" parent="1">
          <mxGeometry x="-161" y="-249" width="51" height="26" as="geometry" />
        </mxCell>
        <mxCell id="-78ikd0wvrxrNOZtSnrt-27" value="" style="curved=1;endArrow=classic;html=1;rounded=0;entryX=0.5;entryY=1;entryDx=0;entryDy=0;exitX=0;exitY=0.5;exitDx=0;exitDy=0;" edge="1" parent="1" source="-78ikd0wvrxrNOZtSnrt-23" target="-78ikd0wvrxrNOZtSnrt-14">
          <mxGeometry width="50" height="50" relative="1" as="geometry">
            <mxPoint x="-251" y="-251" as="sourcePoint" />
            <mxPoint x="-240" y="-360" as="targetPoint" />
            <Array as="points">
              <mxPoint x="-257" y="-323" />
              <mxPoint x="-251" y="-341" />
              <mxPoint x="-235" y="-386" />
            </Array>
          </mxGeometry>
        </mxCell>
        <mxCell id="-78ikd0wvrxrNOZtSnrt-28" value="" style="curved=1;endArrow=classic;html=1;rounded=0;exitX=0.5;exitY=1;exitDx=0;exitDy=0;entryX=0;entryY=0;entryDx=0;entryDy=0;" edge="1" parent="1" source="-78ikd0wvrxrNOZtSnrt-24" target="-78ikd0wvrxrNOZtSnrt-1">
          <mxGeometry width="50" height="50" relative="1" as="geometry">
            <mxPoint x="-159" y="-192" as="sourcePoint" />
            <mxPoint x="-271" y="-699" as="targetPoint" />
            <Array as="points">
              <mxPoint x="-262" y="-173" />
              <mxPoint x="-289" y="-368" />
              <mxPoint x="-273" y="-616" />
              <mxPoint x="-289" y="-694" />
            </Array>
          </mxGeometry>
        </mxCell>
        <mxCell id="-78ikd0wvrxrNOZtSnrt-29" value="&lt;u&gt;&lt;b&gt;musID&lt;/b&gt;&lt;/u&gt;" style="rounded=0;whiteSpace=wrap;html=1;align=center;" vertex="1" parent="1">
          <mxGeometry x="-230" y="-165" width="62" height="45" as="geometry" />
        </mxCell>
        <mxCell id="-78ikd0wvrxrNOZtSnrt-30" value="&lt;u&gt;&lt;b&gt;instName&lt;/b&gt;&lt;/u&gt;" style="rounded=0;whiteSpace=wrap;html=1;align=center;" vertex="1" parent="1">
          <mxGeometry x="-168" y="-165" width="62" height="45" as="geometry" />
        </mxCell>
        <mxCell id="-78ikd0wvrxrNOZtSnrt-31" value="- - - - -" style="text;html=1;align=center;verticalAlign=middle;resizable=0;points=[];autosize=1;strokeColor=none;fillColor=none;" vertex="1" parent="1">
          <mxGeometry x="-226" y="-146" width="51" height="26" as="geometry" />
        </mxCell>
        <mxCell id="-78ikd0wvrxrNOZtSnrt-32" value="- - - - -" style="text;html=1;align=center;verticalAlign=middle;resizable=0;points=[];autosize=1;strokeColor=none;fillColor=none;" vertex="1" parent="1">
          <mxGeometry x="-166" y="-146" width="51" height="26" as="geometry" />
        </mxCell>
        <mxCell id="-78ikd0wvrxrNOZtSnrt-34" value="" style="curved=1;endArrow=classic;html=1;rounded=0;exitX=0;exitY=0.5;exitDx=0;exitDy=0;entryX=0.5;entryY=0;entryDx=0;entryDy=0;" edge="1" parent="1" source="-78ikd0wvrxrNOZtSnrt-29" target="-78ikd0wvrxrNOZtSnrt-1">
          <mxGeometry width="50" height="50" relative="1" as="geometry">
            <mxPoint x="-400" y="-176" as="sourcePoint" />
            <mxPoint x="-327" y="-704" as="targetPoint" />
            <Array as="points">
              <mxPoint x="-316" y="-206" />
              <mxPoint x="-350" y="-628" />
              <mxPoint x="-352" y="-683" />
              <mxPoint x="-325" y="-713" />
            </Array>
          </mxGeometry>
        </mxCell>
        <mxCell id="-78ikd0wvrxrNOZtSnrt-35" value="" style="curved=1;endArrow=classic;html=1;rounded=0;exitX=0.75;exitY=0;exitDx=0;exitDy=0;entryX=0.5;entryY=1;entryDx=0;entryDy=0;" edge="1" parent="1" source="-78ikd0wvrxrNOZtSnrt-30" target="-78ikd0wvrxrNOZtSnrt-12">
          <mxGeometry width="50" height="50" relative="1" as="geometry">
            <mxPoint x="-78" y="-207" as="sourcePoint" />
            <mxPoint x="-73" y="-297" as="targetPoint" />
            <Array as="points">
              <mxPoint x="-28" y="-207" />
              <mxPoint x="-26" y="-252" />
              <mxPoint x="-26" y="-276" />
              <mxPoint x="-49" y="-288" />
              <mxPoint x="-90" y="-288" />
            </Array>
          </mxGeometry>
        </mxCell>
        <mxCell id="-78ikd0wvrxrNOZtSnrt-36" value="&lt;font style=&quot;font-size: 14px;&quot;&gt;&lt;b&gt;album&lt;/b&gt;&lt;/font&gt;" style="text;html=1;align=center;verticalAlign=middle;resizable=0;points=[];autosize=1;strokeColor=none;fillColor=none;" vertex="1" parent="1">
          <mxGeometry x="-237" y="-596" width="59" height="29" as="geometry" />
        </mxCell>
        <mxCell id="-78ikd0wvrxrNOZtSnrt-37" value="&lt;font style=&quot;font-size: 14px;&quot;&gt;&lt;b&gt;song&lt;/b&gt;&lt;/font&gt;" style="text;html=1;align=center;verticalAlign=middle;resizable=0;points=[];autosize=1;strokeColor=none;fillColor=none;" vertex="1" parent="1">
          <mxGeometry x="-237" y="-493" width="51" height="29" as="geometry" />
        </mxCell>
        <mxCell id="-78ikd0wvrxrNOZtSnrt-38" value="&lt;font style=&quot;font-size: 14px;&quot;&gt;&lt;b&gt;instrument&lt;/b&gt;&lt;/font&gt;" style="text;html=1;align=center;verticalAlign=middle;resizable=0;points=[];autosize=1;strokeColor=none;fillColor=none;" vertex="1" parent="1">
          <mxGeometry x="-240" y="-377" width="90" height="29" as="geometry" />
        </mxCell>
        <mxCell id="-78ikd0wvrxrNOZtSnrt-40" value="&lt;font style=&quot;font-size: 14px;&quot;&gt;&lt;b&gt;mus_inst&lt;/b&gt;&lt;/font&gt;" style="text;html=1;align=center;verticalAlign=middle;resizable=0;points=[];autosize=1;strokeColor=none;fillColor=none;" vertex="1" parent="1">
          <mxGeometry x="-240" y="-192" width="79" height="29" as="geometry" />
        </mxCell>
        <mxCell id="-78ikd0wvrxrNOZtSnrt-39" value="&lt;font style=&quot;font-size: 14px;&quot;&gt;&lt;b&gt;mus_song&lt;/b&gt;&lt;/font&gt;" style="text;html=1;align=center;verticalAlign=middle;resizable=0;points=[];autosize=1;strokeColor=none;fillColor=none;" vertex="1" parent="1">
          <mxGeometry x="-240" y="-292" width="88" height="29" as="geometry" />
        </mxCell>
      </root>
    </mxGraphModel>
  </diagram>
  <diagram id="pNrlqet907R55rU-SQXq" name="Page-2">
    <mxGraphModel dx="2246" dy="1190" grid="0" gridSize="10" guides="1" tooltips="1" connect="1" arrows="1" fold="1" page="0" pageScale="1" pageWidth="850" pageHeight="1100" math="0" shadow="0">
      <root>
        <mxCell id="0" />
        <mxCell id="1" parent="0" />
        <mxCell id="ulZhLEWON1RXsXongCLW-1" value="&lt;u&gt;&lt;b&gt;salNum&lt;/b&gt;&lt;/u&gt;" style="rounded=0;whiteSpace=wrap;html=1;align=center;" vertex="1" parent="1">
          <mxGeometry x="-430" y="-69" width="62" height="45" as="geometry" />
        </mxCell>
        <mxCell id="ulZhLEWON1RXsXongCLW-2" value="loc" style="rounded=0;whiteSpace=wrap;html=1;align=center;" vertex="1" parent="1">
          <mxGeometry x="-368" y="-69" width="61" height="45" as="geometry" />
        </mxCell>
        <mxCell id="ulZhLEWON1RXsXongCLW-3" value="&lt;b&gt;&lt;u&gt;empID&lt;/u&gt;&lt;/b&gt;" style="rounded=0;whiteSpace=wrap;html=1;align=center;" vertex="1" parent="1">
          <mxGeometry x="-432" y="52" width="61" height="45" as="geometry" />
        </mxCell>
        <mxCell id="ulZhLEWON1RXsXongCLW-4" value="Name" style="rounded=0;whiteSpace=wrap;html=1;align=center;" vertex="1" parent="1">
          <mxGeometry x="-371" y="52" width="61" height="45" as="geometry" />
        </mxCell>
        <mxCell id="ulZhLEWON1RXsXongCLW-5" value="&lt;b&gt;&lt;u&gt;ownerID&lt;/u&gt;&lt;/b&gt;" style="rounded=0;whiteSpace=wrap;html=1;align=center;" vertex="1" parent="1">
          <mxGeometry x="-429" y="187" width="61" height="45" as="geometry" />
        </mxCell>
        <mxCell id="ulZhLEWON1RXsXongCLW-6" value="Name" style="rounded=0;whiteSpace=wrap;html=1;align=center;" vertex="1" parent="1">
          <mxGeometry x="-368" y="187" width="61" height="45" as="geometry" />
        </mxCell>
        <mxCell id="-Rt6vsjqp9LN_oUNg8d0-1" value="&lt;b&gt;&lt;u&gt;propID&lt;/u&gt;&lt;/b&gt;" style="rounded=0;whiteSpace=wrap;html=1;align=center;" vertex="1" parent="1">
          <mxGeometry x="-429" y="325" width="62" height="45" as="geometry" />
        </mxCell>
        <mxCell id="-Rt6vsjqp9LN_oUNg8d0-2" value="add" style="rounded=0;whiteSpace=wrap;html=1;align=center;" vertex="1" parent="1">
          <mxGeometry x="-367" y="325" width="61" height="45" as="geometry" />
        </mxCell>
        <mxCell id="-Rt6vsjqp9LN_oUNg8d0-3" value="city" style="rounded=0;whiteSpace=wrap;html=1;align=center;" vertex="1" parent="1">
          <mxGeometry x="-308" y="325" width="61" height="45" as="geometry" />
        </mxCell>
        <mxCell id="-Rt6vsjqp9LN_oUNg8d0-4" value="state" style="rounded=0;whiteSpace=wrap;html=1;align=center;" vertex="1" parent="1">
          <mxGeometry x="-247" y="325" width="61" height="45" as="geometry" />
        </mxCell>
        <mxCell id="-Rt6vsjqp9LN_oUNg8d0-5" value="zip" style="rounded=0;whiteSpace=wrap;html=1;align=center;" vertex="1" parent="1">
          <mxGeometry x="-186" y="325" width="61" height="45" as="geometry" />
        </mxCell>
        <mxCell id="-Rt6vsjqp9LN_oUNg8d0-7" value="&lt;font style=&quot;font-size: 14px;&quot;&gt;&lt;b&gt;slaes office&amp;nbsp;&lt;/b&gt;&lt;/font&gt;" style="text;html=1;align=center;verticalAlign=middle;resizable=0;points=[];autosize=1;strokeColor=none;fillColor=none;" vertex="1" parent="1">
          <mxGeometry x="-438" y="-95" width="98" height="29" as="geometry" />
        </mxCell>
        <mxCell id="-Rt6vsjqp9LN_oUNg8d0-8" value="&lt;font style=&quot;font-size: 14px;&quot;&gt;&lt;b&gt;Employee&lt;/b&gt;&lt;/font&gt;" style="text;html=1;align=center;verticalAlign=middle;resizable=0;points=[];autosize=1;strokeColor=none;fillColor=none;" vertex="1" parent="1">
          <mxGeometry x="-440" y="27" width="84" height="29" as="geometry" />
        </mxCell>
        <mxCell id="-Rt6vsjqp9LN_oUNg8d0-9" value="&lt;font style=&quot;font-size: 14px;&quot;&gt;&lt;b&gt;Property&lt;/b&gt;&lt;/font&gt;" style="text;html=1;align=center;verticalAlign=middle;resizable=0;points=[];autosize=1;strokeColor=none;fillColor=none;" vertex="1" parent="1">
          <mxGeometry x="-436" y="299" width="76" height="29" as="geometry" />
        </mxCell>
        <mxCell id="-Rt6vsjqp9LN_oUNg8d0-10" value="&lt;font style=&quot;font-size: 14px;&quot;&gt;&lt;b&gt;Owner&lt;/b&gt;&lt;/font&gt;" style="text;html=1;align=center;verticalAlign=middle;resizable=0;points=[];autosize=1;strokeColor=none;fillColor=none;" vertex="1" parent="1">
          <mxGeometry x="-436" y="162" width="62" height="29" as="geometry" />
        </mxCell>
        <mxCell id="0NbT9vGeOdIQaqurvoZc-1" value="empID" style="rounded=0;whiteSpace=wrap;html=1;align=center;" vertex="1" parent="1">
          <mxGeometry x="-306" y="-69" width="61" height="45" as="geometry" />
        </mxCell>
        <mxCell id="MawY_0Kxt6W-RdxNGTBl-1" style="edgeStyle=orthogonalEdgeStyle;rounded=0;orthogonalLoop=1;jettySize=auto;html=1;entryX=0.5;entryY=1;entryDx=0;entryDy=0;" edge="1" parent="1" source="0NbT9vGeOdIQaqurvoZc-2" target="ulZhLEWON1RXsXongCLW-3">
          <mxGeometry relative="1" as="geometry">
            <Array as="points">
              <mxPoint x="-129" y="-37" />
              <mxPoint x="-129" y="117" />
              <mxPoint x="-401" y="117" />
            </Array>
          </mxGeometry>
        </mxCell>
        <mxCell id="0NbT9vGeOdIQaqurvoZc-2" value="- - - - -&amp;nbsp;" style="text;html=1;align=center;verticalAlign=middle;resizable=0;points=[];autosize=1;strokeColor=none;fillColor=none;" vertex="1" parent="1">
          <mxGeometry x="-300" y="-50" width="55" height="26" as="geometry" />
        </mxCell>
        <mxCell id="MawY_0Kxt6W-RdxNGTBl-5" style="edgeStyle=orthogonalEdgeStyle;rounded=0;orthogonalLoop=1;jettySize=auto;html=1;entryX=0.5;entryY=1;entryDx=0;entryDy=0;" edge="1" parent="1" source="MawY_0Kxt6W-RdxNGTBl-3" target="ulZhLEWON1RXsXongCLW-1">
          <mxGeometry relative="1" as="geometry">
            <Array as="points">
              <mxPoint x="-279" y="5" />
              <mxPoint x="-399" y="5" />
            </Array>
          </mxGeometry>
        </mxCell>
        <mxCell id="MawY_0Kxt6W-RdxNGTBl-3" value="salNum" style="rounded=0;whiteSpace=wrap;html=1;align=center;" vertex="1" parent="1">
          <mxGeometry x="-310" y="52" width="62" height="45" as="geometry" />
        </mxCell>
        <mxCell id="MawY_0Kxt6W-RdxNGTBl-4" value="- - - - -&amp;nbsp;" style="text;html=1;align=center;verticalAlign=middle;resizable=0;points=[];autosize=1;strokeColor=none;fillColor=none;" vertex="1" parent="1">
          <mxGeometry x="-308" y="69" width="55" height="26" as="geometry" />
        </mxCell>
        <mxCell id="MawY_0Kxt6W-RdxNGTBl-8" style="edgeStyle=orthogonalEdgeStyle;rounded=0;orthogonalLoop=1;jettySize=auto;html=1;entryX=0;entryY=0.5;entryDx=0;entryDy=0;" edge="1" parent="1" source="MawY_0Kxt6W-RdxNGTBl-6" target="ulZhLEWON1RXsXongCLW-1">
          <mxGeometry relative="1" as="geometry">
            <Array as="points">
              <mxPoint x="-94" y="-111" />
              <mxPoint x="-453" y="-111" />
              <mxPoint x="-453" y="-46" />
            </Array>
          </mxGeometry>
        </mxCell>
        <mxCell id="MawY_0Kxt6W-RdxNGTBl-6" value="salNum" style="rounded=0;whiteSpace=wrap;html=1;align=center;" vertex="1" parent="1">
          <mxGeometry x="-125" y="325" width="62" height="45" as="geometry" />
        </mxCell>
        <mxCell id="MawY_0Kxt6W-RdxNGTBl-7" value="- - - - -&amp;nbsp;" style="text;html=1;align=center;verticalAlign=middle;resizable=0;points=[];autosize=1;strokeColor=none;fillColor=none;" vertex="1" parent="1">
          <mxGeometry x="-123" y="342" width="55" height="26" as="geometry" />
        </mxCell>
        <mxCell id="ET6rhoXT1PkBZaj7-bjT-1" style="edgeStyle=orthogonalEdgeStyle;rounded=0;orthogonalLoop=1;jettySize=auto;html=1;entryX=0.5;entryY=1;entryDx=0;entryDy=0;" edge="1" parent="1" source="MawY_0Kxt6W-RdxNGTBl-9" target="ulZhLEWON1RXsXongCLW-5">
          <mxGeometry relative="1" as="geometry">
            <Array as="points">
              <mxPoint x="-460" y="458" />
              <mxPoint x="-460" y="254" />
              <mxPoint x="-398" y="254" />
            </Array>
          </mxGeometry>
        </mxCell>
        <mxCell id="MawY_0Kxt6W-RdxNGTBl-9" value="&lt;b&gt;&lt;u&gt;ownerID&lt;/u&gt;&lt;/b&gt;" style="rounded=0;whiteSpace=wrap;html=1;align=center;" vertex="1" parent="1">
          <mxGeometry x="-432" y="435" width="61" height="45" as="geometry" />
        </mxCell>
        <mxCell id="MawY_0Kxt6W-RdxNGTBl-10" value="&lt;b&gt;&lt;u&gt;propID&lt;/u&gt;&lt;/b&gt;" style="rounded=0;whiteSpace=wrap;html=1;align=center;" vertex="1" parent="1">
          <mxGeometry x="-371" y="435" width="62" height="45" as="geometry" />
        </mxCell>
        <mxCell id="MawY_0Kxt6W-RdxNGTBl-11" value="percent_owned" style="rounded=0;whiteSpace=wrap;html=1;align=center;" vertex="1" parent="1">
          <mxGeometry x="-308" y="435" width="107" height="45" as="geometry" />
        </mxCell>
        <mxCell id="MawY_0Kxt6W-RdxNGTBl-12" value="- - - - -&amp;nbsp;" style="text;html=1;align=center;verticalAlign=middle;resizable=0;points=[];autosize=1;strokeColor=none;fillColor=none;" vertex="1" parent="1">
          <mxGeometry x="-425.5" y="456" width="55" height="26" as="geometry" />
        </mxCell>
        <mxCell id="MawY_0Kxt6W-RdxNGTBl-13" value="- - - - -&amp;nbsp;" style="text;html=1;align=center;verticalAlign=middle;resizable=0;points=[];autosize=1;strokeColor=none;fillColor=none;" vertex="1" parent="1">
          <mxGeometry x="-368" y="456" width="55" height="26" as="geometry" />
        </mxCell>
        <mxCell id="ET6rhoXT1PkBZaj7-bjT-2" style="edgeStyle=orthogonalEdgeStyle;rounded=0;orthogonalLoop=1;jettySize=auto;html=1;entryX=0.645;entryY=0.978;entryDx=0;entryDy=0;entryPerimeter=0;" edge="1" parent="1" source="MawY_0Kxt6W-RdxNGTBl-10" target="-Rt6vsjqp9LN_oUNg8d0-1">
          <mxGeometry relative="1" as="geometry" />
        </mxCell>
        <mxCell id="1WuoingHHri5kvf6kZr1-1" value="&lt;font style=&quot;font-size: 14px;&quot;&gt;&lt;b&gt;owner_prop&lt;/b&gt;&lt;/font&gt;" style="text;html=1;align=center;verticalAlign=middle;resizable=0;points=[];autosize=1;strokeColor=none;fillColor=none;" vertex="1" parent="1">
          <mxGeometry x="-440" y="409" width="98" height="29" as="geometry" />
        </mxCell>
      </root>
    </mxGraphModel>
  </diagram>
  <diagram id="SfdqG5CAasO6Lit5fObR" name="Page-3">
    <mxGraphModel dx="2246" dy="1990" grid="0" gridSize="10" guides="1" tooltips="1" connect="1" arrows="1" fold="1" page="0" pageScale="1" pageWidth="850" pageHeight="1100" math="0" shadow="0">
      <root>
        <mxCell id="0" />
        <mxCell id="1" parent="0" />
        <mxCell id="sixjfX8JcQ8lDnlo3MdM-1" value="&lt;u&gt;&lt;b&gt;patID&lt;/b&gt;&lt;/u&gt;" style="rounded=0;whiteSpace=wrap;html=1;align=center;" vertex="1" parent="1">
          <mxGeometry x="-429" y="-1059" width="62" height="45" as="geometry" />
        </mxCell>
        <mxCell id="sixjfX8JcQ8lDnlo3MdM-2" value="Name" style="rounded=0;whiteSpace=wrap;html=1;align=center;" vertex="1" parent="1">
          <mxGeometry x="-367" y="-1059" width="61" height="45" as="geometry" />
        </mxCell>
        <mxCell id="sixjfX8JcQ8lDnlo3MdM-3" value="DOB" style="rounded=0;whiteSpace=wrap;html=1;align=center;" vertex="1" parent="1">
          <mxGeometry x="-308" y="-1059" width="61" height="45" as="geometry" />
        </mxCell>
        <mxCell id="sixjfX8JcQ8lDnlo3MdM-7" value="&lt;u&gt;&lt;b&gt;wardID&lt;/b&gt;&lt;/u&gt;" style="rounded=0;whiteSpace=wrap;html=1;align=center;" vertex="1" parent="1">
          <mxGeometry x="-429" y="-926" width="62" height="45" as="geometry" />
        </mxCell>
        <mxCell id="sixjfX8JcQ8lDnlo3MdM-8" value="Name" style="rounded=0;whiteSpace=wrap;html=1;align=center;" vertex="1" parent="1">
          <mxGeometry x="-367" y="-926" width="61" height="45" as="geometry" />
        </mxCell>
        <mxCell id="sixjfX8JcQ8lDnlo3MdM-9" value="&lt;u&gt;&lt;b&gt;nurseID&lt;/b&gt;&lt;/u&gt;" style="rounded=0;whiteSpace=wrap;html=1;align=center;" vertex="1" parent="1">
          <mxGeometry x="-429" y="-779" width="62" height="45" as="geometry" />
        </mxCell>
        <mxCell id="sixjfX8JcQ8lDnlo3MdM-10" value="Name" style="rounded=0;whiteSpace=wrap;html=1;align=center;" vertex="1" parent="1">
          <mxGeometry x="-367" y="-779" width="61" height="45" as="geometry" />
        </mxCell>
        <mxCell id="sixjfX8JcQ8lDnlo3MdM-11" value="&lt;u&gt;&lt;b&gt;consltID&lt;/b&gt;&lt;/u&gt;" style="rounded=0;whiteSpace=wrap;html=1;align=center;" vertex="1" parent="1">
          <mxGeometry x="-429" y="-636" width="62" height="45" as="geometry" />
        </mxCell>
        <mxCell id="sixjfX8JcQ8lDnlo3MdM-12" value="Name" style="rounded=0;whiteSpace=wrap;html=1;align=center;" vertex="1" parent="1">
          <mxGeometry x="-367" y="-636" width="61" height="45" as="geometry" />
        </mxCell>
        <mxCell id="sixjfX8JcQ8lDnlo3MdM-15" value="&lt;b&gt;&lt;u&gt;drugCode&lt;/u&gt;&lt;/b&gt;" style="rounded=0;whiteSpace=wrap;html=1;align=center;" vertex="1" parent="1">
          <mxGeometry x="-429" y="-503" width="62" height="45" as="geometry" />
        </mxCell>
        <mxCell id="sixjfX8JcQ8lDnlo3MdM-16" value="recDosage" style="rounded=0;whiteSpace=wrap;html=1;align=center;" vertex="1" parent="1">
          <mxGeometry x="-367" y="-503" width="70" height="45" as="geometry" />
        </mxCell>
        <mxCell id="sixjfX8JcQ8lDnlo3MdM-17" value="&lt;b&gt;&lt;u&gt;drugCode&lt;/u&gt;&lt;/b&gt;" style="rounded=0;whiteSpace=wrap;html=1;align=center;" vertex="1" parent="1">
          <mxGeometry x="-429" y="-394" width="62" height="45" as="geometry" />
        </mxCell>
        <mxCell id="sixjfX8JcQ8lDnlo3MdM-18" value="&lt;u&gt;&lt;b&gt;Brand&lt;/b&gt;&lt;/u&gt;" style="rounded=0;whiteSpace=wrap;html=1;align=center;" vertex="1" parent="1">
          <mxGeometry x="-367" y="-394" width="70" height="45" as="geometry" />
        </mxCell>
        <mxCell id="sixjfX8JcQ8lDnlo3MdM-30" style="edgeStyle=orthogonalEdgeStyle;rounded=0;orthogonalLoop=1;jettySize=auto;html=1;entryX=0;entryY=0.5;entryDx=0;entryDy=0;exitX=0;exitY=0.25;exitDx=0;exitDy=0;" edge="1" parent="1" source="sixjfX8JcQ8lDnlo3MdM-17" target="sixjfX8JcQ8lDnlo3MdM-15">
          <mxGeometry relative="1" as="geometry">
            <Array as="points">
              <mxPoint x="-449" y="-383" />
              <mxPoint x="-449" y="-480" />
            </Array>
          </mxGeometry>
        </mxCell>
        <mxCell id="sixjfX8JcQ8lDnlo3MdM-19" value="- - - - -&amp;nbsp;" style="text;html=1;align=center;verticalAlign=middle;resizable=0;points=[];autosize=1;strokeColor=none;fillColor=none;" vertex="1" parent="1">
          <mxGeometry x="-429" y="-373" width="55" height="26" as="geometry" />
        </mxCell>
        <mxCell id="sixjfX8JcQ8lDnlo3MdM-21" value="&lt;font style=&quot;font-size: 14px;&quot;&gt;&lt;b&gt;patient&lt;/b&gt;&lt;/font&gt;" style="text;html=1;align=center;verticalAlign=middle;resizable=0;points=[];autosize=1;strokeColor=none;fillColor=none;" vertex="1" parent="1">
          <mxGeometry x="-438" y="-1083" width="64" height="29" as="geometry" />
        </mxCell>
        <mxCell id="sixjfX8JcQ8lDnlo3MdM-22" value="&lt;font style=&quot;font-size: 14px;&quot;&gt;&lt;b&gt;ward&lt;/b&gt;&lt;/font&gt;" style="text;html=1;align=center;verticalAlign=middle;resizable=0;points=[];autosize=1;strokeColor=none;fillColor=none;" vertex="1" parent="1">
          <mxGeometry x="-438" y="-951" width="51" height="29" as="geometry" />
        </mxCell>
        <mxCell id="sixjfX8JcQ8lDnlo3MdM-23" value="&lt;font style=&quot;font-size: 14px;&quot;&gt;&lt;b&gt;Consultant&lt;/b&gt;&lt;/font&gt;" style="text;html=1;align=center;verticalAlign=middle;resizable=0;points=[];autosize=1;strokeColor=none;fillColor=none;" vertex="1" parent="1">
          <mxGeometry x="-438" y="-660" width="91" height="29" as="geometry" />
        </mxCell>
        <mxCell id="sixjfX8JcQ8lDnlo3MdM-24" value="&lt;span style=&quot;font-size: 14px;&quot;&gt;&lt;b&gt;Drug&lt;/b&gt;&lt;/span&gt;" style="text;html=1;align=center;verticalAlign=middle;resizable=0;points=[];autosize=1;strokeColor=none;fillColor=none;" vertex="1" parent="1">
          <mxGeometry x="-438" y="-526" width="51" height="29" as="geometry" />
        </mxCell>
        <mxCell id="sixjfX8JcQ8lDnlo3MdM-25" value="&lt;font style=&quot;font-size: 14px;&quot;&gt;&lt;b&gt;Drug Brand&lt;/b&gt;&lt;/font&gt;" style="text;html=1;align=center;verticalAlign=middle;resizable=0;points=[];autosize=1;strokeColor=none;fillColor=none;" vertex="1" parent="1">
          <mxGeometry x="-438" y="-418" width="95" height="29" as="geometry" />
        </mxCell>
        <mxCell id="sixjfX8JcQ8lDnlo3MdM-26" value="&lt;font style=&quot;font-size: 14px;&quot;&gt;&lt;b&gt;Nurse&lt;/b&gt;&lt;/font&gt;" style="text;html=1;align=center;verticalAlign=middle;resizable=0;points=[];autosize=1;strokeColor=none;fillColor=none;" vertex="1" parent="1">
          <mxGeometry x="-435" y="-803" width="58" height="29" as="geometry" />
        </mxCell>
        <mxCell id="sixjfX8JcQ8lDnlo3MdM-27" value="&lt;font style=&quot;font-size: 14px;&quot;&gt;&lt;b&gt;Giving drug&lt;/b&gt;&lt;/font&gt;" style="text;html=1;align=center;verticalAlign=middle;resizable=0;points=[];autosize=1;strokeColor=none;fillColor=none;" vertex="1" parent="1">
          <mxGeometry x="-91" y="-526" width="97" height="29" as="geometry" />
        </mxCell>
        <mxCell id="sixjfX8JcQ8lDnlo3MdM-28" value="&lt;font style=&quot;font-size: 14px;&quot;&gt;&lt;b&gt;Examination&lt;/b&gt;&lt;/font&gt;" style="text;html=1;align=center;verticalAlign=middle;resizable=0;points=[];autosize=1;strokeColor=none;fillColor=none;" vertex="1" parent="1">
          <mxGeometry x="-71" y="-658" width="101" height="29" as="geometry" />
        </mxCell>
        <mxCell id="sixjfX8JcQ8lDnlo3MdM-31" value="nurseID" style="rounded=0;whiteSpace=wrap;html=1;align=center;" vertex="1" parent="1">
          <mxGeometry x="-306" y="-926" width="62" height="45" as="geometry" />
        </mxCell>
        <mxCell id="sixjfX8JcQ8lDnlo3MdM-33" style="edgeStyle=orthogonalEdgeStyle;rounded=0;orthogonalLoop=1;jettySize=auto;html=1;entryX=0;entryY=0.5;entryDx=0;entryDy=0;" edge="1" parent="1" source="sixjfX8JcQ8lDnlo3MdM-32" target="sixjfX8JcQ8lDnlo3MdM-9">
          <mxGeometry relative="1" as="geometry">
            <Array as="points">
              <mxPoint x="-275" y="-856" />
              <mxPoint x="-449" y="-856" />
              <mxPoint x="-449" y="-757" />
            </Array>
          </mxGeometry>
        </mxCell>
        <mxCell id="sixjfX8JcQ8lDnlo3MdM-32" value="- - - - -&amp;nbsp;" style="text;html=1;align=center;verticalAlign=middle;resizable=0;points=[];autosize=1;strokeColor=none;fillColor=none;" vertex="1" parent="1">
          <mxGeometry x="-302.5" y="-904" width="55" height="26" as="geometry" />
        </mxCell>
        <mxCell id="sixjfX8JcQ8lDnlo3MdM-34" value="wardID" style="rounded=0;whiteSpace=wrap;html=1;align=center;" vertex="1" parent="1">
          <mxGeometry x="-247.5" y="-1059" width="62" height="45" as="geometry" />
        </mxCell>
        <mxCell id="sixjfX8JcQ8lDnlo3MdM-36" style="edgeStyle=orthogonalEdgeStyle;rounded=0;orthogonalLoop=1;jettySize=auto;html=1;entryX=0;entryY=0.5;entryDx=0;entryDy=0;" edge="1" parent="1" source="sixjfX8JcQ8lDnlo3MdM-35" target="sixjfX8JcQ8lDnlo3MdM-7">
          <mxGeometry relative="1" as="geometry">
            <Array as="points">
              <mxPoint x="-217" y="-981" />
              <mxPoint x="-449" y="-981" />
              <mxPoint x="-449" y="-903" />
            </Array>
          </mxGeometry>
        </mxCell>
        <mxCell id="sixjfX8JcQ8lDnlo3MdM-35" value="- - - - -&amp;nbsp;" style="text;html=1;align=center;verticalAlign=middle;resizable=0;points=[];autosize=1;strokeColor=none;fillColor=none;" vertex="1" parent="1">
          <mxGeometry x="-244" y="-1040" width="55" height="26" as="geometry" />
        </mxCell>
        <mxCell id="sixjfX8JcQ8lDnlo3MdM-37" value="consltID" style="rounded=0;whiteSpace=wrap;html=1;align=center;" vertex="1" parent="1">
          <mxGeometry x="-185.5" y="-1059" width="62" height="45" as="geometry" />
        </mxCell>
        <mxCell id="sixjfX8JcQ8lDnlo3MdM-39" style="edgeStyle=orthogonalEdgeStyle;rounded=0;orthogonalLoop=1;jettySize=auto;html=1;" edge="1" parent="1" source="sixjfX8JcQ8lDnlo3MdM-38" target="sixjfX8JcQ8lDnlo3MdM-11">
          <mxGeometry relative="1" as="geometry">
            <Array as="points">
              <mxPoint x="-167" y="-687" />
              <mxPoint x="-460" y="-687" />
              <mxPoint x="-460" y="-613" />
            </Array>
          </mxGeometry>
        </mxCell>
        <mxCell id="sixjfX8JcQ8lDnlo3MdM-38" value="- - - - -&amp;nbsp;" style="text;html=1;align=center;verticalAlign=middle;resizable=0;points=[];autosize=1;strokeColor=none;fillColor=none;" vertex="1" parent="1">
          <mxGeometry x="-182" y="-1040" width="55" height="26" as="geometry" />
        </mxCell>
        <mxCell id="rEVO0F_MczlLvhm2Ya2R-5" value="&lt;u&gt;&lt;b&gt;patID&lt;/b&gt;&lt;/u&gt;" style="rounded=0;whiteSpace=wrap;html=1;align=center;" vertex="1" parent="1">
          <mxGeometry x="-63" y="-636" width="62" height="45" as="geometry" />
        </mxCell>
        <mxCell id="rEVO0F_MczlLvhm2Ya2R-6" value="&lt;u&gt;&lt;b&gt;consltID&lt;/b&gt;&lt;/u&gt;" style="rounded=0;whiteSpace=wrap;html=1;align=center;" vertex="1" parent="1">
          <mxGeometry x="-1" y="-636" width="62" height="45" as="geometry" />
        </mxCell>
        <mxCell id="rEVO0F_MczlLvhm2Ya2R-11" style="edgeStyle=orthogonalEdgeStyle;rounded=0;orthogonalLoop=1;jettySize=auto;html=1;entryX=0.25;entryY=1;entryDx=0;entryDy=0;" edge="1" parent="1" source="rEVO0F_MczlLvhm2Ya2R-7" target="sixjfX8JcQ8lDnlo3MdM-11">
          <mxGeometry relative="1" as="geometry">
            <Array as="points">
              <mxPoint x="30" y="-571" />
              <mxPoint x="-413" y="-571" />
            </Array>
          </mxGeometry>
        </mxCell>
        <mxCell id="rEVO0F_MczlLvhm2Ya2R-7" value="- - - - -&amp;nbsp;" style="text;html=1;align=center;verticalAlign=middle;resizable=0;points=[];autosize=1;strokeColor=none;fillColor=none;" vertex="1" parent="1">
          <mxGeometry x="2.5" y="-617" width="55" height="26" as="geometry" />
        </mxCell>
        <mxCell id="rEVO0F_MczlLvhm2Ya2R-10" style="edgeStyle=orthogonalEdgeStyle;rounded=0;orthogonalLoop=1;jettySize=auto;html=1;entryX=0;entryY=0.5;entryDx=0;entryDy=0;" edge="1" parent="1" source="rEVO0F_MczlLvhm2Ya2R-8" target="sixjfX8JcQ8lDnlo3MdM-1">
          <mxGeometry relative="1" as="geometry">
            <mxPoint x="-470" y="-1115" as="targetPoint" />
            <Array as="points">
              <mxPoint x="-84" y="-604" />
              <mxPoint x="-84" y="-1117" />
              <mxPoint x="-470" y="-1117" />
              <mxPoint x="-470" y="-1036" />
            </Array>
          </mxGeometry>
        </mxCell>
        <mxCell id="rEVO0F_MczlLvhm2Ya2R-8" value="- - - - -&amp;nbsp;" style="text;html=1;align=center;verticalAlign=middle;resizable=0;points=[];autosize=1;strokeColor=none;fillColor=none;" vertex="1" parent="1">
          <mxGeometry x="-59.5" y="-617" width="55" height="26" as="geometry" />
        </mxCell>
        <mxCell id="HC8FP3dH9N945C8SL8uW-1" value="&lt;u&gt;&lt;b&gt;patID&lt;/b&gt;&lt;/u&gt;" style="rounded=0;whiteSpace=wrap;html=1;align=center;" vertex="1" parent="1">
          <mxGeometry x="-82.5" y="-503" width="62" height="45" as="geometry" />
        </mxCell>
        <mxCell id="HC8FP3dH9N945C8SL8uW-2" value="&lt;b style=&quot;border-color: var(--border-color);&quot;&gt;&lt;u style=&quot;border-color: var(--border-color);&quot;&gt;drugCode&lt;/u&gt;&lt;/b&gt;" style="rounded=0;whiteSpace=wrap;html=1;align=center;" vertex="1" parent="1">
          <mxGeometry x="-20.5" y="-503" width="62" height="45" as="geometry" />
        </mxCell>
        <mxCell id="HC8FP3dH9N945C8SL8uW-12" style="edgeStyle=orthogonalEdgeStyle;rounded=0;orthogonalLoop=1;jettySize=auto;html=1;entryX=0.5;entryY=1;entryDx=0;entryDy=0;" edge="1" parent="1" source="HC8FP3dH9N945C8SL8uW-3" target="sixjfX8JcQ8lDnlo3MdM-15">
          <mxGeometry relative="1" as="geometry">
            <Array as="points">
              <mxPoint x="11" y="-438" />
              <mxPoint x="-398" y="-438" />
            </Array>
          </mxGeometry>
        </mxCell>
        <mxCell id="HC8FP3dH9N945C8SL8uW-3" value="- - - - -&amp;nbsp;" style="text;html=1;align=center;verticalAlign=middle;resizable=0;points=[];autosize=1;strokeColor=none;fillColor=none;" vertex="1" parent="1">
          <mxGeometry x="-17" y="-484" width="55" height="26" as="geometry" />
        </mxCell>
        <mxCell id="HC8FP3dH9N945C8SL8uW-10" style="edgeStyle=orthogonalEdgeStyle;rounded=0;orthogonalLoop=1;jettySize=auto;html=1;entryX=0;entryY=0.75;entryDx=0;entryDy=0;" edge="1" parent="1" source="HC8FP3dH9N945C8SL8uW-4" target="sixjfX8JcQ8lDnlo3MdM-1">
          <mxGeometry relative="1" as="geometry">
            <Array as="points">
              <mxPoint x="-107" y="-471" />
              <mxPoint x="-107" y="-527" />
              <mxPoint x="-510" y="-527" />
              <mxPoint x="-510" y="-1025" />
            </Array>
          </mxGeometry>
        </mxCell>
        <mxCell id="HC8FP3dH9N945C8SL8uW-4" value="- - - - -&amp;nbsp;" style="text;html=1;align=center;verticalAlign=middle;resizable=0;points=[];autosize=1;strokeColor=none;fillColor=none;" vertex="1" parent="1">
          <mxGeometry x="-79" y="-484" width="55" height="26" as="geometry" />
        </mxCell>
        <mxCell id="HC8FP3dH9N945C8SL8uW-11" style="edgeStyle=orthogonalEdgeStyle;rounded=0;orthogonalLoop=1;jettySize=auto;html=1;entryX=0;entryY=0.75;entryDx=0;entryDy=0;" edge="1" parent="1" source="HC8FP3dH9N945C8SL8uW-5" target="sixjfX8JcQ8lDnlo3MdM-9">
          <mxGeometry relative="1" as="geometry">
            <Array as="points">
              <mxPoint x="73" y="-545" />
              <mxPoint x="-478" y="-545" />
              <mxPoint x="-478" y="-745" />
            </Array>
          </mxGeometry>
        </mxCell>
        <mxCell id="HC8FP3dH9N945C8SL8uW-5" value="&lt;u style=&quot;border-color: var(--border-color);&quot;&gt;&lt;b style=&quot;border-color: var(--border-color);&quot;&gt;nurseID&lt;/b&gt;&lt;/u&gt;" style="rounded=0;whiteSpace=wrap;html=1;align=center;" vertex="1" parent="1">
          <mxGeometry x="41.5" y="-503" width="62" height="45" as="geometry" />
        </mxCell>
        <mxCell id="HC8FP3dH9N945C8SL8uW-6" value="- - - - -&amp;nbsp;" style="text;html=1;align=center;verticalAlign=middle;resizable=0;points=[];autosize=1;strokeColor=none;fillColor=none;" vertex="1" parent="1">
          <mxGeometry x="45" y="-484" width="55" height="26" as="geometry" />
        </mxCell>
        <mxCell id="HC8FP3dH9N945C8SL8uW-7" value="&lt;u&gt;&lt;b&gt;time&lt;/b&gt;&lt;/u&gt;" style="rounded=0;whiteSpace=wrap;html=1;align=center;" vertex="1" parent="1">
          <mxGeometry x="162" y="-503" width="62" height="45" as="geometry" />
        </mxCell>
        <mxCell id="HC8FP3dH9N945C8SL8uW-8" value="&lt;u&gt;&lt;b&gt;date&lt;/b&gt;&lt;/u&gt;" style="rounded=0;whiteSpace=wrap;html=1;align=center;" vertex="1" parent="1">
          <mxGeometry x="100" y="-503" width="62" height="45" as="geometry" />
        </mxCell>
        <mxCell id="HC8FP3dH9N945C8SL8uW-9" value="dosage" style="rounded=0;whiteSpace=wrap;html=1;align=center;" vertex="1" parent="1">
          <mxGeometry x="224" y="-503" width="61" height="45" as="geometry" />
        </mxCell>
      </root>
    </mxGraphModel>
  </diagram>
  <diagram id="2VoMduo4twlJ9JwP7dio" name="Page-4">
    <mxGraphModel dx="2246" dy="1190" grid="0" gridSize="10" guides="1" tooltips="1" connect="1" arrows="1" fold="1" page="0" pageScale="1" pageWidth="850" pageHeight="1100" math="0" shadow="0">
      <root>
        <mxCell id="0" />
        <mxCell id="1" parent="0" />
        <mxCell id="-DYo3-YearN5DtQzlW8f-1" value="&lt;u&gt;&lt;b&gt;aircraftID&lt;/b&gt;&lt;/u&gt;" style="rounded=0;whiteSpace=wrap;html=1;align=center;" vertex="1" parent="1">
          <mxGeometry x="-451" y="-59" width="71" height="45" as="geometry" />
        </mxCell>
        <mxCell id="-DYo3-YearN5DtQzlW8f-2" value="capacity" style="rounded=0;whiteSpace=wrap;html=1;align=center;" vertex="1" parent="1">
          <mxGeometry x="-380" y="-59" width="61" height="45" as="geometry" />
        </mxCell>
        <mxCell id="-DYo3-YearN5DtQzlW8f-3" value="model" style="rounded=0;whiteSpace=wrap;html=1;align=center;" vertex="1" parent="1">
          <mxGeometry x="-321" y="-59" width="61" height="45" as="geometry" />
        </mxCell>
        <mxCell id="-DYo3-YearN5DtQzlW8f-4" value="crewID" style="rounded=0;whiteSpace=wrap;html=1;align=center;" vertex="1" parent="1">
          <mxGeometry x="-260" y="-59" width="61" height="45" as="geometry" />
        </mxCell>
        <mxCell id="-DYo3-YearN5DtQzlW8f-5" value="maj.pilot" style="rounded=0;whiteSpace=wrap;html=1;align=center;" vertex="1" parent="1">
          <mxGeometry x="-199" y="-59" width="61" height="45" as="geometry" />
        </mxCell>
        <mxCell id="-DYo3-YearN5DtQzlW8f-6" value="ass.pilot" style="rounded=0;whiteSpace=wrap;html=1;align=center;" vertex="1" parent="1">
          <mxGeometry x="-138" y="-59" width="61" height="45" as="geometry" />
        </mxCell>
        <mxCell id="-DYo3-YearN5DtQzlW8f-7" value="hostess1" style="rounded=0;whiteSpace=wrap;html=1;align=center;" vertex="1" parent="1">
          <mxGeometry x="-77" y="-59" width="61" height="45" as="geometry" />
        </mxCell>
        <mxCell id="-DYo3-YearN5DtQzlW8f-8" value="hostess2" style="rounded=0;whiteSpace=wrap;html=1;align=center;" vertex="1" parent="1">
          <mxGeometry x="-16" y="-59" width="61" height="45" as="geometry" />
        </mxCell>
        <mxCell id="-DYo3-YearN5DtQzlW8f-9" value="&lt;u&gt;&lt;b&gt;airlineID&lt;/b&gt;&lt;/u&gt;" style="rounded=0;whiteSpace=wrap;html=1;align=center;" vertex="1" parent="1">
          <mxGeometry x="-451" y="56" width="71" height="45" as="geometry" />
        </mxCell>
        <mxCell id="-DYo3-YearN5DtQzlW8f-10" value="name" style="rounded=0;whiteSpace=wrap;html=1;align=center;" vertex="1" parent="1">
          <mxGeometry x="-380" y="56" width="61" height="45" as="geometry" />
        </mxCell>
        <mxCell id="-DYo3-YearN5DtQzlW8f-11" value="address" style="rounded=0;whiteSpace=wrap;html=1;align=center;" vertex="1" parent="1">
          <mxGeometry x="-321" y="56" width="61" height="45" as="geometry" />
        </mxCell>
        <mxCell id="-DYo3-YearN5DtQzlW8f-12" value="contactP" style="rounded=0;whiteSpace=wrap;html=1;align=center;" vertex="1" parent="1">
          <mxGeometry x="-260" y="56" width="61" height="45" as="geometry" />
        </mxCell>
        <mxCell id="tD5wCpAYt_l_XDqFOT7k-10" style="edgeStyle=orthogonalEdgeStyle;rounded=0;orthogonalLoop=1;jettySize=auto;html=1;entryX=0;entryY=0.75;entryDx=0;entryDy=0;" edge="1" parent="1" source="-DYo3-YearN5DtQzlW8f-17" target="-DYo3-YearN5DtQzlW8f-9">
          <mxGeometry relative="1" as="geometry">
            <Array as="points">
              <mxPoint x="-466" y="184.5" />
              <mxPoint x="-466" y="90" />
            </Array>
          </mxGeometry>
        </mxCell>
        <mxCell id="-DYo3-YearN5DtQzlW8f-17" value="&lt;u&gt;&lt;b&gt;airlineID&lt;/b&gt;&lt;/u&gt;" style="rounded=0;whiteSpace=wrap;html=1;align=center;" vertex="1" parent="1">
          <mxGeometry x="-451" y="162" width="71" height="45" as="geometry" />
        </mxCell>
        <mxCell id="-DYo3-YearN5DtQzlW8f-18" value="&lt;u&gt;&lt;b&gt;phone&lt;/b&gt;&lt;/u&gt;" style="rounded=0;whiteSpace=wrap;html=1;align=center;" vertex="1" parent="1">
          <mxGeometry x="-380" y="162" width="61" height="45" as="geometry" />
        </mxCell>
        <mxCell id="-DYo3-YearN5DtQzlW8f-21" value="- - - - - - -" style="text;html=1;align=center;verticalAlign=middle;resizable=0;points=[];autosize=1;strokeColor=none;fillColor=none;" vertex="1" parent="1">
          <mxGeometry x="-451" y="183" width="66" height="26" as="geometry" />
        </mxCell>
        <mxCell id="-DYo3-YearN5DtQzlW8f-23" value="&lt;u&gt;&lt;b&gt;empID&lt;/b&gt;&lt;/u&gt;" style="rounded=0;whiteSpace=wrap;html=1;align=center;" vertex="1" parent="1">
          <mxGeometry x="-451" y="265" width="71" height="45" as="geometry" />
        </mxCell>
        <mxCell id="-DYo3-YearN5DtQzlW8f-24" value="name" style="rounded=0;whiteSpace=wrap;html=1;align=center;" vertex="1" parent="1">
          <mxGeometry x="-380" y="265" width="61" height="45" as="geometry" />
        </mxCell>
        <mxCell id="-DYo3-YearN5DtQzlW8f-25" value="address" style="rounded=0;whiteSpace=wrap;html=1;align=center;" vertex="1" parent="1">
          <mxGeometry x="-321" y="265" width="61" height="45" as="geometry" />
        </mxCell>
        <mxCell id="-DYo3-YearN5DtQzlW8f-26" value="day" style="rounded=0;whiteSpace=wrap;html=1;align=center;" vertex="1" parent="1">
          <mxGeometry x="-260" y="265" width="61" height="45" as="geometry" />
        </mxCell>
        <mxCell id="-DYo3-YearN5DtQzlW8f-27" value="month" style="rounded=0;whiteSpace=wrap;html=1;align=center;" vertex="1" parent="1">
          <mxGeometry x="-199" y="265" width="61" height="45" as="geometry" />
        </mxCell>
        <mxCell id="-DYo3-YearN5DtQzlW8f-28" value="year" style="rounded=0;whiteSpace=wrap;html=1;align=center;" vertex="1" parent="1">
          <mxGeometry x="-138" y="265" width="61" height="45" as="geometry" />
        </mxCell>
        <mxCell id="-DYo3-YearN5DtQzlW8f-29" value="position" style="rounded=0;whiteSpace=wrap;html=1;align=center;" vertex="1" parent="1">
          <mxGeometry x="-77" y="265" width="61" height="45" as="geometry" />
        </mxCell>
        <mxCell id="-DYo3-YearN5DtQzlW8f-30" value="gender" style="rounded=0;whiteSpace=wrap;html=1;align=center;" vertex="1" parent="1">
          <mxGeometry x="-16" y="265" width="61" height="45" as="geometry" />
        </mxCell>
        <mxCell id="tD5wCpAYt_l_XDqFOT7k-9" style="edgeStyle=orthogonalEdgeStyle;rounded=0;orthogonalLoop=1;jettySize=auto;html=1;entryX=0;entryY=0.5;entryDx=0;entryDy=0;" edge="1" parent="1" source="fL8UvIy4-9ZzoiDLdMLH-1" target="-DYo3-YearN5DtQzlW8f-23">
          <mxGeometry relative="1" as="geometry">
            <Array as="points">
              <mxPoint x="-471" y="384" />
              <mxPoint x="-471" y="288" />
            </Array>
          </mxGeometry>
        </mxCell>
        <mxCell id="fL8UvIy4-9ZzoiDLdMLH-1" value="&lt;u style=&quot;border-color: var(--border-color);&quot;&gt;&lt;b style=&quot;border-color: var(--border-color);&quot;&gt;empID&lt;/b&gt;&lt;/u&gt;" style="rounded=0;whiteSpace=wrap;html=1;align=center;" vertex="1" parent="1">
          <mxGeometry x="-451" y="361" width="71" height="45" as="geometry" />
        </mxCell>
        <mxCell id="fL8UvIy4-9ZzoiDLdMLH-2" value="&lt;b&gt;&lt;u&gt;qualification&lt;/u&gt;&lt;/b&gt;" style="rounded=0;whiteSpace=wrap;html=1;align=center;" vertex="1" parent="1">
          <mxGeometry x="-380" y="361" width="104" height="45" as="geometry" />
        </mxCell>
        <mxCell id="fL8UvIy4-9ZzoiDLdMLH-3" value="- - - - - - -" style="text;html=1;align=center;verticalAlign=middle;resizable=0;points=[];autosize=1;strokeColor=none;fillColor=none;" vertex="1" parent="1">
          <mxGeometry x="-451" y="382" width="66" height="26" as="geometry" />
        </mxCell>
        <mxCell id="fL8UvIy4-9ZzoiDLdMLH-5" value="&lt;u&gt;&lt;b&gt;routeID&lt;/b&gt;&lt;/u&gt;" style="rounded=0;whiteSpace=wrap;html=1;align=center;" vertex="1" parent="1">
          <mxGeometry x="-451" y="460" width="71" height="45" as="geometry" />
        </mxCell>
        <mxCell id="fL8UvIy4-9ZzoiDLdMLH-6" value="origin" style="rounded=0;whiteSpace=wrap;html=1;align=center;" vertex="1" parent="1">
          <mxGeometry x="-380" y="460" width="61" height="45" as="geometry" />
        </mxCell>
        <mxCell id="fL8UvIy4-9ZzoiDLdMLH-7" value="distance" style="rounded=0;whiteSpace=wrap;html=1;align=center;" vertex="1" parent="1">
          <mxGeometry x="-321" y="460" width="61" height="45" as="geometry" />
        </mxCell>
        <mxCell id="fL8UvIy4-9ZzoiDLdMLH-8" value="destination" style="rounded=0;whiteSpace=wrap;html=1;align=center;" vertex="1" parent="1">
          <mxGeometry x="-260" y="460" width="69" height="45" as="geometry" />
        </mxCell>
        <mxCell id="fL8UvIy4-9ZzoiDLdMLH-9" value="classification" style="rounded=0;whiteSpace=wrap;html=1;align=center;" vertex="1" parent="1">
          <mxGeometry x="-193" y="460" width="78" height="45" as="geometry" />
        </mxCell>
        <mxCell id="fL8UvIy4-9ZzoiDLdMLH-13" value="&lt;u&gt;&lt;b&gt;transID&lt;/b&gt;&lt;/u&gt;" style="rounded=0;whiteSpace=wrap;html=1;align=center;" vertex="1" parent="1">
          <mxGeometry x="-451" y="559" width="71" height="45" as="geometry" />
        </mxCell>
        <mxCell id="fL8UvIy4-9ZzoiDLdMLH-14" value="date" style="rounded=0;whiteSpace=wrap;html=1;align=center;" vertex="1" parent="1">
          <mxGeometry x="-380" y="559" width="61" height="45" as="geometry" />
        </mxCell>
        <mxCell id="fL8UvIy4-9ZzoiDLdMLH-15" value="amount" style="rounded=0;whiteSpace=wrap;html=1;align=center;" vertex="1" parent="1">
          <mxGeometry x="-321" y="559" width="61" height="45" as="geometry" />
        </mxCell>
        <mxCell id="fL8UvIy4-9ZzoiDLdMLH-16" value="desc." style="rounded=0;whiteSpace=wrap;html=1;align=center;" vertex="1" parent="1">
          <mxGeometry x="-260" y="559" width="69" height="45" as="geometry" />
        </mxCell>
        <mxCell id="fL8UvIy4-9ZzoiDLdMLH-20" style="edgeStyle=orthogonalEdgeStyle;rounded=0;orthogonalLoop=1;jettySize=auto;html=1;entryX=0;entryY=0.5;entryDx=0;entryDy=0;" edge="1" parent="1" source="fL8UvIy4-9ZzoiDLdMLH-18" target="-DYo3-YearN5DtQzlW8f-9">
          <mxGeometry relative="1" as="geometry">
            <Array as="points">
              <mxPoint x="81" y="240" />
              <mxPoint x="-475" y="240" />
              <mxPoint x="-475" y="79" />
            </Array>
          </mxGeometry>
        </mxCell>
        <mxCell id="fL8UvIy4-9ZzoiDLdMLH-18" value="airlineID" style="rounded=0;whiteSpace=wrap;html=1;align=center;" vertex="1" parent="1">
          <mxGeometry x="45" y="265" width="71" height="45" as="geometry" />
        </mxCell>
        <mxCell id="fL8UvIy4-9ZzoiDLdMLH-19" value="- - - - - - -" style="text;html=1;align=center;verticalAlign=middle;resizable=0;points=[];autosize=1;strokeColor=none;fillColor=none;" vertex="1" parent="1">
          <mxGeometry x="45" y="286" width="66" height="26" as="geometry" />
        </mxCell>
        <mxCell id="fL8UvIy4-9ZzoiDLdMLH-23" style="edgeStyle=orthogonalEdgeStyle;rounded=0;orthogonalLoop=1;jettySize=auto;html=1;entryX=0;entryY=0.25;entryDx=0;entryDy=0;" edge="1" parent="1" source="fL8UvIy4-9ZzoiDLdMLH-21" target="-DYo3-YearN5DtQzlW8f-9">
          <mxGeometry relative="1" as="geometry">
            <Array as="points">
              <mxPoint x="-155" y="537" />
              <mxPoint x="-498" y="537" />
              <mxPoint x="-498" y="67" />
            </Array>
          </mxGeometry>
        </mxCell>
        <mxCell id="fL8UvIy4-9ZzoiDLdMLH-21" value="airlineID" style="rounded=0;whiteSpace=wrap;html=1;align=center;" vertex="1" parent="1">
          <mxGeometry x="-191" y="559" width="71" height="45" as="geometry" />
        </mxCell>
        <mxCell id="fL8UvIy4-9ZzoiDLdMLH-22" value="- - - - - - -" style="text;html=1;align=center;verticalAlign=middle;resizable=0;points=[];autosize=1;strokeColor=none;fillColor=none;" vertex="1" parent="1">
          <mxGeometry x="-191" y="580" width="66" height="26" as="geometry" />
        </mxCell>
        <mxCell id="fL8UvIy4-9ZzoiDLdMLH-24" value="airlineID" style="rounded=0;whiteSpace=wrap;html=1;align=center;" vertex="1" parent="1">
          <mxGeometry x="45" y="-59" width="71" height="45" as="geometry" />
        </mxCell>
        <mxCell id="fL8UvIy4-9ZzoiDLdMLH-26" style="edgeStyle=orthogonalEdgeStyle;rounded=0;orthogonalLoop=1;jettySize=auto;html=1;entryX=0.883;entryY=-0.007;entryDx=0;entryDy=0;entryPerimeter=0;" edge="1" parent="1" source="fL8UvIy4-9ZzoiDLdMLH-25" target="-DYo3-YearN5DtQzlW8f-9">
          <mxGeometry relative="1" as="geometry">
            <mxPoint x="-415" y="42" as="targetPoint" />
            <Array as="points">
              <mxPoint x="78" y="6" />
              <mxPoint x="-388" y="6" />
              <mxPoint x="-388" y="34" />
            </Array>
          </mxGeometry>
        </mxCell>
        <mxCell id="fL8UvIy4-9ZzoiDLdMLH-25" value="- - - - - - -" style="text;html=1;align=center;verticalAlign=middle;resizable=0;points=[];autosize=1;strokeColor=none;fillColor=none;" vertex="1" parent="1">
          <mxGeometry x="45" y="-38" width="66" height="26" as="geometry" />
        </mxCell>
        <mxCell id="WpLVRzo95zucle0qt977-9" style="edgeStyle=orthogonalEdgeStyle;rounded=0;orthogonalLoop=1;jettySize=auto;html=1;entryX=0.75;entryY=0;entryDx=0;entryDy=0;exitX=0;exitY=0.5;exitDx=0;exitDy=0;" edge="1" parent="1" source="WpLVRzo95zucle0qt977-1" target="-DYo3-YearN5DtQzlW8f-1">
          <mxGeometry relative="1" as="geometry">
            <mxPoint x="-404" y="-69" as="targetPoint" />
            <Array as="points">
              <mxPoint x="33" y="451" />
              <mxPoint x="33" y="393" />
              <mxPoint x="145" y="393" />
              <mxPoint x="145" y="-79" />
              <mxPoint x="-398" y="-79" />
            </Array>
          </mxGeometry>
        </mxCell>
        <mxCell id="WpLVRzo95zucle0qt977-1" value="&lt;u style=&quot;border-color: var(--border-color);&quot;&gt;&lt;b style=&quot;border-color: var(--border-color);&quot;&gt;aircraftID&lt;/b&gt;&lt;/u&gt;" style="rounded=0;whiteSpace=wrap;html=1;align=center;" vertex="1" parent="1">
          <mxGeometry x="49" y="429" width="61" height="45" as="geometry" />
        </mxCell>
        <mxCell id="WpLVRzo95zucle0qt977-2" value="&lt;u style=&quot;border-color: var(--border-color);&quot;&gt;&lt;b style=&quot;border-color: var(--border-color);&quot;&gt;routeID&lt;/b&gt;&lt;/u&gt;" style="rounded=0;whiteSpace=wrap;html=1;align=center;" vertex="1" parent="1">
          <mxGeometry x="110" y="429" width="62" height="45" as="geometry" />
        </mxCell>
        <mxCell id="WpLVRzo95zucle0qt977-3" value="- - - - -&amp;nbsp;" style="text;html=1;align=center;verticalAlign=middle;resizable=0;points=[];autosize=1;strokeColor=none;fillColor=none;" vertex="1" parent="1">
          <mxGeometry x="55.5" y="450" width="55" height="26" as="geometry" />
        </mxCell>
        <mxCell id="WpLVRzo95zucle0qt977-10" style="edgeStyle=orthogonalEdgeStyle;rounded=0;orthogonalLoop=1;jettySize=auto;html=1;entryX=0.5;entryY=1;entryDx=0;entryDy=0;" edge="1" parent="1" source="WpLVRzo95zucle0qt977-4" target="fL8UvIy4-9ZzoiDLdMLH-5">
          <mxGeometry relative="1" as="geometry">
            <Array as="points">
              <mxPoint x="141" y="516" />
              <mxPoint x="-415" y="516" />
            </Array>
          </mxGeometry>
        </mxCell>
        <mxCell id="WpLVRzo95zucle0qt977-4" value="- - - - -&amp;nbsp;" style="text;html=1;align=center;verticalAlign=middle;resizable=0;points=[];autosize=1;strokeColor=none;fillColor=none;" vertex="1" parent="1">
          <mxGeometry x="113" y="450" width="55" height="26" as="geometry" />
        </mxCell>
        <mxCell id="WpLVRzo95zucle0qt977-5" value="price" style="rounded=0;whiteSpace=wrap;html=1;align=center;" vertex="1" parent="1">
          <mxGeometry x="172" y="429" width="61" height="45" as="geometry" />
        </mxCell>
        <mxCell id="WpLVRzo95zucle0qt977-6" value="pass" style="rounded=0;whiteSpace=wrap;html=1;align=center;" vertex="1" parent="1">
          <mxGeometry x="231" y="429" width="61" height="45" as="geometry" />
        </mxCell>
        <mxCell id="WpLVRzo95zucle0qt977-7" value="arr time" style="rounded=0;whiteSpace=wrap;html=1;align=center;" vertex="1" parent="1">
          <mxGeometry x="292" y="429" width="69" height="45" as="geometry" />
        </mxCell>
        <mxCell id="WpLVRzo95zucle0qt977-8" value="dept time" style="rounded=0;whiteSpace=wrap;html=1;align=center;" vertex="1" parent="1">
          <mxGeometry x="359" y="429" width="78" height="45" as="geometry" />
        </mxCell>
        <mxCell id="tD5wCpAYt_l_XDqFOT7k-1" value="&lt;font style=&quot;font-size: 14px;&quot;&gt;&lt;b&gt;Assigned-Route&lt;/b&gt;&lt;/font&gt;" style="text;html=1;align=center;verticalAlign=middle;resizable=0;points=[];autosize=1;strokeColor=none;fillColor=none;" vertex="1" parent="1">
          <mxGeometry x="40" y="403" width="125" height="29" as="geometry" />
        </mxCell>
        <mxCell id="tD5wCpAYt_l_XDqFOT7k-2" value="&lt;span style=&quot;font-size: 14px;&quot;&gt;&lt;b&gt;Aircraft-Crew&lt;/b&gt;&lt;/span&gt;" style="text;html=1;align=center;verticalAlign=middle;resizable=0;points=[];autosize=1;strokeColor=none;fillColor=none;" vertex="1" parent="1">
          <mxGeometry x="-505" y="-82" width="107" height="29" as="geometry" />
        </mxCell>
        <mxCell id="tD5wCpAYt_l_XDqFOT7k-3" value="&lt;font style=&quot;font-size: 14px;&quot;&gt;&lt;b&gt;Employee-Qualification&lt;/b&gt;&lt;/font&gt;" style="text;html=1;align=center;verticalAlign=middle;resizable=0;points=[];autosize=1;strokeColor=none;fillColor=none;" vertex="1" parent="1">
          <mxGeometry x="-469" y="332" width="174" height="29" as="geometry" />
        </mxCell>
        <mxCell id="tD5wCpAYt_l_XDqFOT7k-4" value="&lt;font style=&quot;font-size: 14px;&quot;&gt;&lt;b&gt;Transaction&lt;/b&gt;&lt;/font&gt;" style="text;html=1;align=center;verticalAlign=middle;resizable=0;points=[];autosize=1;strokeColor=none;fillColor=none;" vertex="1" parent="1">
          <mxGeometry x="-462" y="535" width="97" height="29" as="geometry" />
        </mxCell>
        <mxCell id="tD5wCpAYt_l_XDqFOT7k-5" value="&lt;span style=&quot;font-size: 14px;&quot;&gt;&lt;b&gt;Employee&lt;/b&gt;&lt;/span&gt;" style="text;html=1;align=center;verticalAlign=middle;resizable=0;points=[];autosize=1;strokeColor=none;fillColor=none;" vertex="1" parent="1">
          <mxGeometry x="-464" y="239" width="84" height="29" as="geometry" />
        </mxCell>
        <mxCell id="tD5wCpAYt_l_XDqFOT7k-6" value="&lt;span style=&quot;font-size: 14px;&quot;&gt;&lt;b&gt;Route&lt;/b&gt;&lt;/span&gt;" style="text;html=1;align=center;verticalAlign=middle;resizable=0;points=[];autosize=1;strokeColor=none;fillColor=none;" vertex="1" parent="1">
          <mxGeometry x="-466" y="435" width="58" height="29" as="geometry" />
        </mxCell>
        <mxCell id="tD5wCpAYt_l_XDqFOT7k-7" value="&lt;font style=&quot;font-size: 14px;&quot;&gt;&lt;b&gt;Airline&lt;/b&gt;&lt;/font&gt;" style="text;html=1;align=center;verticalAlign=middle;resizable=0;points=[];autosize=1;strokeColor=none;fillColor=none;" vertex="1" parent="1">
          <mxGeometry x="-460" y="31" width="62" height="29" as="geometry" />
        </mxCell>
        <mxCell id="tD5wCpAYt_l_XDqFOT7k-8" value="&lt;font style=&quot;font-size: 14px;&quot;&gt;&lt;b&gt;Airline-phone&lt;/b&gt;&lt;/font&gt;" style="text;html=1;align=center;verticalAlign=middle;resizable=0;points=[];autosize=1;strokeColor=none;fillColor=none;" vertex="1" parent="1">
          <mxGeometry x="-462" y="137" width="108" height="29" as="geometry" />
        </mxCell>
      </root>
    </mxGraphModel>
  </diagram>
</mxfile>
